<svg xmlns="http://www.w3.org/2000/svg" viewBox="0 0 287.38 169.27"><defs><style>.cls-1{font-size:12px;font-family:Calibri;}.cls-2{fill:#0096d5;}.cls-3{fill:#ed1d24;}.cls-4{fill:#a5d12d;}</style></defs><title>Asset 3</title><g id="Layer_2" data-name="Layer 2"><g id="Layer_1-2" data-name="Layer 1"><text class="cls-1" transform="translate(270.25 112.86)"> </text><path class="cls-2" d="M135.41,0c62.36,59.46-2.89,111.86-2.89,111.86l-43.07-45C172.54,48.86,135.41,0,135.41,0Z"/><path class="cls-3" d="M147.62,0c-62.35,59.46,2.9,111.86,2.9,111.86l43.07-45C110.5,48.86,147.62,0,147.62,0Z"/><rect class="cls-4" x="51.54" y="118.51" width="9" height="4.93"/><polygon class="cls-4" points="1.61 117.44 1.61 122.8 27.96 122.8 0 150.76 0 155.37 40.39 155.37 40.39 150.65 10.39 150.65 39 122.05 39 117.44 1.61 117.44"/><rect class="cls-4" x="52.82" y="128.58" width="6.64" height="26.14"/><path class="cls-4" d="M73.61,125.15l7.5-4.18v9.57H88v2.54H80.79v17.43a1,1,0,0,0,1,1h9.39v3.21H77.92a4.31,4.31,0,0,1-4.31-4.31V133.35H67.45v-2.73h6.26Z"/><path class="cls-4" d="M99.27,119.69l7.07-2.25v15.27s19.69-10.69,20.73,0v22h-5.95V134.63c.25-9.24-15.1,2-15.1,2v18.09H99.27Z"/><path class="cls-4" d="M178.18,129.44v25.28H185V136.4s15.32-11.57,14.78,0v18.32h6.86V131.58c-8.57-8.92-22.29,2-22.29,2v-5Z"/><path class="cls-4" d="M287.25,142.51c1.66-14.79-13.5-14.79-13.5-14.79s-20,.11-18.21,15c2.59,21.57,29.92,9.66,29.92,9.66l-3.35-2.16c-22.45,7.48-19.4-7.95-19.4-7.95ZM271.4,131.34c9.72,0,9,8.2,9,8.2H262.63S263.27,131.35,271.4,131.34Z"/><path class="cls-4" d="M240.11,118.51l-.22,13.71c-25.95-13.66-23.78,11.15-23.78,11.15,2.25,21.24,23.78,6.43,23.78,6.43v5.57l6.86-1.72V117.44Zm-17.9,22.89c1.12-15.72,16.72-8.75,17.58-3.6C242.5,154.09,221.14,156.44,222.21,141.4Z"/><path class="cls-4" d="M165.91,152.15,165.8,134c-3-9-18.26-5.46-18.26-5.46l-10.29,2.14,3,3.36s16-6.84,17.83.29v4.5s-14.9-.81-20.42,4.39c-2.88,2.72-2.79,9.24-.42,10.93,7.44,5.3,21.91-3.11,21.91-3.11l2.35,3.64H169v-2.57Zm-7.74-3.21s-13.68,8.35-16,0c-2.09-7.54,16-7.88,16-7.88Z"/><path class="cls-2" d="M258.91,169.27v-8.4h1.56V168h4.4v1.32Z"/><path class="cls-2" d="M268.43,169.27v-7.08h-2.78v-1.32h7.12v1.32H270v7.08Z"/><path class="cls-2" d="M275.53,169.27v-8.4h3.69a5.21,5.21,0,0,1,2.38.52,3.89,3.89,0,0,1,1.61,1.47,4.5,4.5,0,0,1,0,4.42,3.89,3.89,0,0,1-1.61,1.47,5.34,5.34,0,0,1-2.38.52Zm1.56-1.32h2a3.51,3.51,0,0,0,1.64-.36,2.7,2.7,0,0,0,1.08-1,3.16,3.16,0,0,0,0-3,2.72,2.72,0,0,0-1.08-1,3.51,3.51,0,0,0-1.64-.36h-2Z"/></g></g></svg>